# xmcd
#
# Track frame offsets:
# 150
# 733
# 32461
# 67807
# 87119
# 115466
# 141547
# 166319
# 191075
# 221938
# 254851
# 289009
# 314297
#
# Disc length: 4227 seconds
#
#
# Revision: 0
# Processed by: cddbd v1.5.2PL0 Copyright (c) Steve Scherf et al.
# Submitted via: FreeRIP 2.96 
#
DISCID=c310810d
DTITLE=Ingrid Noll - Die Apothekerin CD6v6
DYEAR=1997
DGENRE=Speech
TTITLE0=CD6 Fortsetzung
TTITLE1=56 Die Apothekerin
TTITLE2=57 Die Apothekerin
TTITLE3=58 Die Apothekerin
TTITLE4=59 Die Apothekerin
TTITLE5=60 Die Apothekerin
TTITLE6=61 Die Apothekerin
TTITLE7=62 Die Apothekerin
TTITLE8=63 Die Apothekerin
TTITLE9=64 Die Apothekerin
TTITLE10=65 Die Apothekerin
TTITLE11=66 Die Apothekerin
TTITLE12=Abspann
EXTD=gelesen von Silvia Jost
EXTT0=
EXTT1=
EXTT2=
EXTT3=
EXTT4=
EXTT5=
EXTT6=
EXTT7=
EXTT8=
EXTT9=
EXTT10=
EXTT11=
EXTT12=
PLAYORDER=
